<svg height="512pt" viewBox="0 0 512 512" width="512pt" xmlns="http://www.w3.org/2000/svg"><path d="m512 512h-512v-77.410156c0-27.550782 17.632812-52 43.761719-60.71875l148.238281-49.40625v-13.839844l-22.625-22.625h-73.375v-122.351562c0-85.136719 64.097656-159.601563 149.054688-165.28125 93.152343-6.238282 170.945312 67.777343 170.945312 159.632812v128h-73.375l-22.625 22.625v13.839844l148.238281 49.40625c26.128907 8.71875 43.761719 33.183594 43.761719 60.71875zm0 0" fill="#ffb6e0"/><path d="m176 128h32v32h-32zm0 0" fill="#fff"/><path d="m240 128h96v32h-96zm0 0" fill="#fff"/><path d="m352 480h-352v32h512v-67.871094l-42.273438-42.273437c3.378907-7.9375 6.066407-16.222657 7.777344-24.878907l-157.503906-52.511718v-13.839844l22.625-22.625h73.375v-46.6875c-18.847656-10.945312-40.671875-17.3125-64-17.3125-70.574219 0-128 57.421875-128 128 0 70.574219 57.425781 128 128 128" fill="#f09acf"/><path d="m396.683594 419.316406 22.625-22.628906 87.996094 87.996094-22.625 22.628906zm0 0" fill="#57565c"/><path d="m419.3125 396.6875-22.625 22.625 33.679688 33.679688c8.464843-6.578126 16.046874-14.175782 22.625-22.625zm0 0" fill="#2d2d30"/><path d="m448 352c0 53.019531-42.980469 96-96 96s-96-42.980469-96-96 42.980469-96 96-96 96 42.980469 96 96zm0 0" fill="#e4edfb"/><path d="m352 288h32v32h-32zm0 0" fill="#fff"/></svg>