<svg height="512pt" viewBox="0 0 512 512.00021" width="512pt" xmlns="http://www.w3.org/2000/svg" xmlns:xlink="http://www.w3.org/1999/xlink"><linearGradient id="a" gradientUnits="userSpaceOnUse" x1=".000105" x2="512.000105" y1="256" y2="256"><stop offset="0" stop-color="#80d8ff"/><stop offset="1" stop-color="#ea80fc"/></linearGradient><path d="m506.144531 421.300781-116.664062-116.664062 17.121093-17.121094c7.808594-7.8125 7.808594-20.472656 0-28.285156-7.8125-7.808594-20.472656-7.808594-28.285156 0l-17.121094 17.121093-26.304687-26.304687c10.8125-23.164063 16.492187-48.574219 16.492187-74.355469 0-96.875-78.816406-175.691406-175.691406-175.691406s-175.691406 78.816406-175.691406 175.691406 78.816406 175.691406 175.691406 175.691406c25.777344 0 51.1875-5.679687 74.355469-16.492187l26.304687 26.308594-17.121093 17.117187c-7.808594 7.8125-7.808594 20.476563 0 28.285156 7.8125 7.808594 20.476562 7.8125 28.285156 0l17.121094-17.121093 116.664062 116.664062c7.890625 7.890625 20.644531 7.757813 28.390625-.105469 2.613282-2.613281 56.453125-56.453124 56.453125-56.453124 7.804688-7.808594 7.808594-20.476563 0-28.285157zm-330.453125-109.917969c-74.820312 0-135.691406-60.871093-135.691406-135.691406 0-74.820312 60.871094-135.691406 135.691406-135.691406 74.820313 0 135.691406 60.871094 135.691406 135.691406 0 74.941406-60.71875 135.691406-135.691406 135.691406zm128.945313 21.53125-19.671875-19.671874c10.460937-8.324219 19.953125-17.8125 28.277344-28.273438l19.671874 19.667969zm130.804687 130.804688-102.519531-102.523438 28.273437-28.273437 102.523438 102.519531zm0 0" fill="url(#a)"/></svg>